<?xml version="1.0"?>
<svg xmlns="http://www.w3.org/2000/svg" id="Layer_1" data-name="Layer 1" viewBox="0 0 512 512" width="512px" height="512px"><g><title class="active-path" style="">Fast Delivery </title><path d="M54.376,238h50a7,7,0,0,0,0-14h-50a7,7,0,1,0,0,14Z" data-original="#000000" class="active-path" fill="#000000"/><path d="M34.376,288h70a7,7,0,0,0,0-14h-70a7,7,0,1,0,0,14Z" data-original="#000000" class="active-path" fill="#000000"/><path d="M104.376,174h-30a7,7,0,0,0,0,14h30a7,7,0,0,0,0-14Z" data-original="#000000" class="active-path" fill="#000000"/><polygon points="240.042 172.085 229.363 165.919 193.014 186.905 203.693 193.071 240.042 172.085" data-original="#000000" class="active-path" fill="#000000"/><circle cx="207.624" cy="349.37" r="28" data-original="#000000" class="active-path" fill="#000000"/><path d="M411.372,184H338v49H461.7l-40.749-44.594A13.223,13.223,0,0,0,411.372,184Z" data-original="#000000" class="active-path" fill="#000000"/><path d="M439.029,342h18.6c7.168,0,13.376-5.462,13.376-12.63V247H338v95h18.219c3.343-19,20.632-35,41.405-35S435.686,323,439.029,342Z" data-original="#000000" class="active-path" fill="#000000"/><path d="M249.029,342H324V147.63A12.616,12.616,0,0,0,311.1,135H147.624A12.386,12.386,0,0,0,135,147.63V329.37A12.386,12.386,0,0,0,147.624,342h18.6c3.343-19,20.632-35,41.405-35S245.686,323,249.029,342Zm-19.666-60.88a6.989,6.989,0,0,1-3.5-.938l-50.358-29.071a7,7,0,0,1-3.5-6.062V186.907a7,7,0,0,1,3.5-6.062l50.355-29.071a7,7,0,0,1,7,0l50.5,29.071A7.137,7.137,0,0,1,287,186.907v58.142a7.136,7.136,0,0,1-3.643,6.062l-50.422,29.071A7.251,7.251,0,0,1,229.363,281.12Z" data-original="#000000" class="active-path" fill="#000000"/><circle cx="397.624" cy="349.37" r="28" data-original="#000000" class="active-path" fill="#000000"/><polygon points="236 261.996 273 241.008 273 199.028 236 220.016 236 261.996" data-original="#000000" class="active-path" fill="#000000"/><polygon points="254.042 180.168 217.693 201.154 229.363 207.892 265.712 186.905 254.042 180.168" data-original="#000000" class="active-path" fill="#000000"/><polygon points="186 241.008 222 261.996 222 220.016 186 199.028 186 241.008" data-original="#000000" class="active-path" fill="#000000"/></g> </svg>
