<?xml version="1.0"?>
<svg xmlns="http://www.w3.org/2000/svg" id="Layer_1" enable-background="new 0 0 496 496" height="512px" viewBox="0 0 496 496" width="512px" class=""><g><path d="m0 112v-32c0-26.51 21.49-48 48-48h400c26.51 0 48 21.49 48 48v32c0 8.837-7.163 16-16 16h-464c-8.837 0-16-7.163-16-16zm173.3-17.12c8.774-13.013-4.859-29.729-19.42-23.65-5.772 2.399-9.273 7.698-9.8 13.2-1.592 16.622 20.155 24.2 29.22 10.45zm-67.42 5.89c14.751 6.144 28.077-10.824 19.42-23.65-8.28-12.574-27.804-7.473-29.22 7.31-.664 6.928 3.168 13.577 9.8 16.34zm-56.651-8.65c6.179 15.574 29.133 11.708 30.69-4.55.962-10.044-7.43-18.458-17.49-17.49-10.511 1.008-17.366 12.001-13.2 22.04zm446.771 83.88v240c0 26.51-21.49 48-48 48h-400c-26.51 0-48-21.49-48-48v-240c0-8.837 7.163-16 16-16h464c8.837 0 16 7.163 16 16zm-292 46c0 8.836 7.163 16 16 16h126c8.837 0 16-7.164 16-16s-7.163-16-16-16h-126c-8.837 0-16 7.164-16 16zm0 56c0 8.836 7.163 16 16 16h96c8.837 0 16-7.164 16-16s-7.163-16-16-16h-96c-8.837 0-16 7.164-16 16zm-168 68c0 8.836 7.163 16 16 16h112c8.837 0 16-7.164 16-16v-136c0-8.836-7.163-16-16-16h-112c-8.837 0-16 7.164-16 16zm195 56c0-8.836-7.163-16-16-16h-163c-8.837 0-16 7.164-16 16s7.163 16 16 16h163c8.837 0 16-7.164 16-16zm61-68c0-8.836-7.163-16-16-16h-56c-8.837 0-16 7.164-16 16s7.163 16 16 16h56c8.837 0 16-7.164 16-16zm183.98-80.79c0-7.361-6.936-15.754-16.81-15.19-20.263 1.23-60.882 12.115-93.73 40.96-43.47 38.17-53.86 87.56-56.31 107.02-1.11 8.77 5.1 16.77 13.87 17.87 8.603 1.138 16.763-5.001 17.87-13.87.67-5.34 2.08-13.44 5-23.02 71.446 13.268 133.883-41.575 130.11-113.77z" data-original="#000000" class="active-path" data-old_color="#000000" fill="#FFFFFF"/></g> </svg>
