<svg height="448pt" viewBox="0 0 448 448" width="448pt" xmlns="http://www.w3.org/2000/svg"><path d="m277.785156 288h109.574219l22.855469-40h-109.574219zm0 0"/><path d="m272 304h112v144h-112zm0 0"/><path d="m400 304h48v144h-48zm0 0"/><path d="m240 0h32v16h-32zm0 0"/><path d="m304 216h112v16h-112zm0 0"/><path d="m405.785156 288h36.429688l-18.214844-31.871094zm0 0"/><path d="m320 185.839844v14.160156h-24c-4.417969 0-8 3.582031-8 8v29.839844l-30.960938 54.160156c-.652343 1.234375-1.007812 2.605469-1.039062 4v152h-64v-262.078125l47.121094-94.320313c.570312-1.117187.871094-2.347656.878906-3.601562v-56h32v56c.007812 1.253906.308594 2.484375.878906 3.601562zm0 0"/><path d="m176 192v256h-112v-256h24v32h16v-32zm0 0"/><path d="m6.945312 448h34.109376l-17.054688-25.574219zm0 0"/><path d="m41.054688 192h-34.109376l17.054688 25.574219zm0 0"/><path d="m24 240c-2.675781 0-5.171875-1.335938-6.65625-3.558594l-17.34375-26.042968v219.203124l17.34375-26.015624c1.570312-2.101563 4.035156-3.335938 6.65625-3.335938s5.085938 1.234375 6.65625 3.335938l17.34375 26.015624v-219.203124l-17.34375 26.042968c-1.484375 2.222656-3.980469 3.558594-6.65625 3.558594zm0 0"/><path d="m152 80c-11.246094 0-22.289062 2.992188-32 8.664062-19.777344-11.503906-44.199219-11.554687-64.019531-.125-19.824219 11.425782-32.023438 32.582032-31.980469 55.460938v32h16v-32c-.019531-15.976562 7.921875-30.914062 21.179688-39.835938 13.253906-8.917968 30.082031-10.648437 44.875-4.613281-11.574219 11.902344-18.054688 27.847657-18.054688 44.449219v32h16v-32c.007812-13.625 5.828125-26.601562 16-35.671875 10.171875 9.070313 15.992188 22.046875 16 35.671875v32h16v-32c0-16.601562-6.480469-32.546875-18.054688-44.449219 17.695313-7.222656 37.996094-3.230469 51.640626 10.160157l11.199218-11.421876c-11.941406-11.753906-28.03125-18.324218-44.785156-18.289062zm0 0"/></svg>