<?xml version="1.0"?>
<svg xmlns="http://www.w3.org/2000/svg" viewBox="0 0 64 64" width="512" height="512"><g id="Tracking"><rect x="2" y="43" width="5" height="2"/><rect x="4" y="39" width="3" height="2"/><rect x="5" y="35" width="2" height="2"/><path d="M15,15a5,5,0,0,0-5,5c0,2.57,3.15,6.53,5,8.55,1.85-2.02,5-5.98,5-8.55A5,5,0,0,0,15,15Zm0,8a3,3,0,1,1,3-3A3.009,3.009,0,0,1,15,23Z"/><circle cx="15" cy="20" r="1"/><path d="M50,43a5,5,0,0,0-5,5,4.924,4.924,0,0,0,1.03,3H25.97A4.924,4.924,0,0,0,27,48a5,5,0,0,0-10,0,4.924,4.924,0,0,0,1.03,3H2v2H50a5,5,0,0,0,0-10ZM23,49H21V47h2Zm28,0H49V47h2Z"/><polygon points="51.586 27 45 27 45 36 60 36 60 35.414 51.586 27"/><path d="M45,38a2.006,2.006,0,0,1-2-2V27a2.006,2.006,0,0,1,2-2h4.59l-1.71-1.71a.99.99,0,0,0-.71-.29H37V38H35V23H27.96A13.017,13.017,0,0,1,15,35a12.835,12.835,0,0,1-3-.36V46a1,1,0,0,0,1,1h2.08a6.991,6.991,0,0,1,13.84,0H43.08a6.991,6.991,0,0,1,13.84,0H59a1,1,0,0,0,1-1V38Zm-1,4H40V40h4Z"/><path d="M15,11A11,11,0,1,0,26,22,11.007,11.007,0,0,0,15,11Zm.71,19.71a1.014,1.014,0,0,1-1.42,0C13.65,30.06,8,24.29,8,20a7,7,0,0,1,14,0C22,24.29,16.35,30.06,15.71,30.71Z"/></g></svg>
