<?xml version="1.0"?>
<svg xmlns="http://www.w3.org/2000/svg" height="512px" viewBox="-32 0 464 464.8" width="512px" class=""><g><path d="m184.398438 416h24v16h-24zm0 0" data-original="#000000" class="active-path" data-old_color="#000000" fill="#FFFFFF"/><path d="m136.398438 416h24v16h-24zm0 0" data-original="#000000" class="active-path" data-old_color="#000000" fill="#FFFFFF"/><path d="m263.601562 192.800781c-4.800781-5.601562-11.203124-8.800781-18.402343-8.800781h-174.398438l-12-64.800781c-2.402343-8.800781-9.601562-15.199219-18.402343-15.199219h-40v16h40c1.601562 0 2.402343.800781 2.402343 2.398438l59.199219 322.402343c2.398438 11.199219 12 20 24 20h82.398438v-16h-82.398438c-4 0-7.199219-2.402343-8-6.402343l-8-41.597657h100.800781c11.199219 0 21.597657-8 23.199219-19.199219l33.601562-168c2.398438-8 .796876-15.203124-4-20.800781zm-71.203124 71.199219h-40c-4.796876 0-8 3.199219-8 8s3.203124 8 8 8h16c13.601562 0 24 10.398438 24 24s-10.398438 24-24 24v24h-16v-24h-24v-16h40c4.800781 0 8-3.199219 8-8s-3.199219-8-8-8h-16c-13.597657 0-24-10.398438-24-24s10.402343-24 24-24v-24h16v24h24zm0 0" data-original="#000000" class="active-path" data-old_color="#000000" fill="#FFFFFF"/><path d="m392.398438 0h-240c-4.796876 0-8 3.199219-8 8v160h104c20 0 36.800781 16.800781 36.800781 36.800781 0 2.398438 0 4.800781-.800781 7.199219l-10.398438 52h54.398438v16h-57.597657l-33.601562 168h155.199219c4.800781 0 8-3.199219 8-8v-432c0-4.800781-3.199219-8-8-8zm-160 24h80v16h-80zm-72 40h168v16h-168zm168 120v16h-40v-16zm-168-80h168v16h-168zm0 48v-16h168v16zm168 88h-40v-16h40zm-56 64h56v16h-56zm112 96h-120v-16h120zm0-40h-120v-16h120zm0-40h-32v-16h32zm0-40h-32v-16h32zm0-40h-32v-16h32zm0-40h-32v-16h32zm0-40h-32v-16h32zm-32-40v-16h32v16zm0-40v-16h32v16zm0 0" data-original="#000000" class="active-path" data-old_color="#000000" fill="#FFFFFF"/></g> </svg>
