<?xml version="1.0"?>
<svg xmlns="http://www.w3.org/2000/svg" id="Layer_3" enable-background="new 0 0 64 64" height="512px" viewBox="0 0 64 64" width="512px"><g><path d="m45 31h4v8h-4z" data-original="#000000" class="active-path" data-old_color="#000000" fill="#FFFFFF"/><path d="m45 41h14v2h-14z" data-original="#000000" class="active-path" data-old_color="#000000" fill="#FFFFFF"/><path d="m22 21c-.551 0-1 .449-1 1v1h2v-1c0-.551-.449-1-1-1z" data-original="#000000" class="active-path" data-old_color="#000000" fill="#FFFFFF"/><path d="m51 31h8v8h-8z" data-original="#000000" class="active-path" data-old_color="#000000" fill="#FFFFFF"/><path d="m45 27h14v2h-14z" data-original="#000000" class="active-path" data-old_color="#000000" fill="#FFFFFF"/><path d="m51 17h8v8h-8z" data-original="#000000" class="active-path" data-old_color="#000000" fill="#FFFFFF"/><path d="m45 17h4v8h-4z" data-original="#000000" class="active-path" data-old_color="#000000" fill="#FFFFFF"/><path d="m45 49h4v8h-4z" data-original="#000000" class="active-path" data-old_color="#000000" fill="#FFFFFF"/><path d="m41 3h8v8h-8z" data-original="#000000" class="active-path" data-old_color="#000000" fill="#FFFFFF"/><path d="m51 3h8v8h-8z" data-original="#000000" class="active-path" data-old_color="#000000" fill="#FFFFFF"/><path d="m31 3h8v8h-8z" data-original="#000000" class="active-path" data-old_color="#000000" fill="#FFFFFF"/><path d="m21 3h8v8h-8z" data-original="#000000" class="active-path" data-old_color="#000000" fill="#FFFFFF"/><path d="m21 13h38v2h-38z" data-original="#000000" class="active-path" data-old_color="#000000" fill="#FFFFFF"/><path d="m59 57v-12h-14v2h5c.552 0 1 .448 1 1v9z" data-original="#000000" class="active-path" data-old_color="#000000" fill="#FFFFFF"/><path d="m9 49h4v8h-4z" data-original="#000000" class="active-path" data-old_color="#000000" fill="#FFFFFF"/><path d="m29 49h4v8h-4z" data-original="#000000" class="active-path" data-old_color="#000000" fill="#FFFFFF"/><path d="m35 49h4v8h-4z" data-original="#000000" class="active-path" data-old_color="#000000" fill="#FFFFFF"/><path d="m7 48c0-.552.448-1 1-1h12c.552 0 1 .448 1 1v9h6v-9c0-.552.448-1 1-1h12c.552 0 1 .448 1 1v9h2v-16h-38v16h2zm20-5h14v2h-14zm-20 0h14v2h-14z" data-original="#000000" class="active-path" data-old_color="#000000" fill="#FFFFFF"/><path d="m15 49h4v8h-4z" data-original="#000000" class="active-path" data-old_color="#000000" fill="#FFFFFF"/><path d="m15 31h8v8h-8z" data-original="#000000" class="active-path" data-old_color="#000000" fill="#FFFFFF"/><path d="m3 59h58v2h-58z" data-original="#000000" class="active-path" data-old_color="#000000" fill="#FFFFFF"/><path d="m5 31h8v8h-8z" data-original="#000000" class="active-path" data-old_color="#000000" fill="#FFFFFF"/><path d="m35 31h8v8h-8z" data-original="#000000" class="active-path" data-old_color="#000000" fill="#FFFFFF"/><path d="m25 31h8v8h-8z" data-original="#000000" class="active-path" data-old_color="#000000" fill="#FFFFFF"/><path d="m43 17h-38v12h38zm-26 10h-2v-2.764l-.105.211c-.339.678-1.45.678-1.789 0l-.106-.211v2.764h-2v-7c0-.464.319-.867.77-.973.454-.105.917.111 1.125.526l1.105 2.211 1.105-2.211c.208-.415.67-.632 1.125-.526.451.106.77.509.77.973zm8 0h-2v-2h-2v2h-2v-5c0-1.654 1.346-3 3-3s3 1.346 3 3zm6 0h-3c-.552 0-1-.448-1-1v-7h2v6h2zm6 0h-3c-.552 0-1-.448-1-1v-7h2v6h2z" data-original="#000000" class="active-path" data-old_color="#000000" fill="#FFFFFF"/></g> </svg>
