<?xml version="1.0"?>
<svg xmlns="http://www.w3.org/2000/svg" height="512px" viewBox="0 -48 467.835 467" width="512px" class=""><g><path d="m175.105469 279.519531c26.375 18.226563 44.347656 46.261719 49.898437 77.835938h93.546875c-15.121093-11.546875-23.972656-29.5-23.925781-48.527344v-29.308594zm0 0" data-original="#000000" class="active-path" data-old_color="#000000" fill="#FFFFFF"/><path d="m213.917969 364.222656c-4.851563-37.441406-28.945313-69.613281-63.511719-84.796875-.882812-.160156-1.71875-.515625-2.441406-1.042969-32.164063-13.121093-68.6875-9.890624-98.050782 8.664063-29.367187 18.558594-47.957031 50.15625-49.914062 84.839844h214.613281c-.140625-2.570313-.378906-5.136719-.695312-7.664063zm0 0" data-original="#000000" class="active-path" data-old_color="#000000" fill="#FFFFFF"/><path d="m440.589844.417969c-15.039063.015625-27.226563 12.203125-27.246094 27.246093v64.488282h54.492188v-64.488282c-.019532-15.042968-12.207032-27.230468-27.246094-27.246093zm0 0" data-original="#000000" class="active-path" data-old_color="#000000" fill="#FFFFFF"/><path d="m166.148438 175.257812c0 31.503907-25.539063 57.039063-57.042969 57.039063-31.5 0-57.039063-25.535156-57.039063-57.039063 0-31.5 25.539063-57.039062 57.039063-57.039062 31.503906 0 57.042969 25.539062 57.042969 57.039062zm0 0" data-original="#000000" class="active-path" data-old_color="#000000" fill="#FFFFFF"/><path d="m150.566406 32.089844-.714844 87.480468c17.941407 13.097657 28.472657 34.035157 28.292969 56.25-.183593 22.210938-11.054687 42.976563-29.207031 55.777344l-.28125 34.171875c1.492188.550781 2.980469 1.132813 4.457031 1.75h147.507813c3.316406 0 6 2.6875 6 6v35.308594c0 26.757813 21.242187 48.527344 47.347656 48.527344 20.941406 0 39.125-13.746094 45.28125-34.207031 1.324219-4.550782 1.980469-9.273438 1.945312-14.015626l.148438-147.371093v-134.097657c-.003906-10.171874 3.957031-19.945312 11.039062-27.246093h-229.824218c-17.519532.054687-31.757813 14.152343-31.992188 31.671875zm27.375 113.71875c0-3.3125 2.683594-6 6-6h9.097656c3.316407 0 6 2.6875 6 6 0 3.316406-2.683593 6-6 6h-9.097656c-3.316406 0-6-2.683594-6-6zm106.898438 68.566406h-100.898438c-3.316406 0-6-2.6875-6-6s2.683594-6 6-6h100.898438c3.3125 0 6 2.6875 6 6s-2.6875 6-6 6zm45.453125 0h-25.648438c-3.3125 0-6-2.6875-6-6s2.6875-6 6-6h25.652344c3.3125 0 6 2.6875 6 6s-2.6875 6-6 6zm30.285156 0h-7.796875c-3.316406 0-6-2.6875-6-6s2.683594-6 6-6h7.796875c3.316406 0 6 2.6875 6 6s-2.683594 6-6 6zm0-62.566406h-101.523437c-3.316407 0-6-2.683594-6-6 0-3.3125 2.683593-6 6-6h101.527343c3.316407 0 6 2.6875 6 6 0 3.316406-2.683593 6-6 6zm-12.753906-74.5625h12.757812c3.316407 0 6 2.6875 6 6s-2.683593 6-6 6h-12.757812c-3.3125 0-6-2.6875-6-6s2.6875-6 6-6zm-97.394531 0h75c3.316406 0 6 2.6875 6 6s-2.683594 6-6 6h-75c-3.3125 0-6-2.6875-6-6s2.6875-6 6-6zm-7.847657 68.5625c0 3.316406-2.6875 6-6 6h-20.699219c-3.316406 0-6-2.683594-6-6 0-3.3125 2.683594-6 6-6h20.699219c3.3125 0 6 2.6875 6 6zm-14.242187-68.5625c3.316406 0 6 2.6875 6 6s-2.683594 6-6 6h-44.398438c-3.3125 0-6-2.6875-6-6s2.6875-6 6-6zm0 0" data-original="#000000" class="active-path" data-old_color="#000000" fill="#FFFFFF"/></g> </svg>
